HIERARCHY
ROOT Hips
{
	OFFSET 0.00000 0.00000 0.00000
	CHANNELS 6 Xposition Yposition Zposition Zrotation Yrotation Xrotation 
	JOINT LHipJoint
	{
		OFFSET 0 0 0
		CHANNELS 3 Zrotation Yrotation Xrotation
		JOINT LeftUpLeg
		{
			OFFSET 1.66553 -1.82942 0.76350
			CHANNELS 3 Zrotation Yrotation Xrotation
			JOINT LeftLeg
			{
				OFFSET 2.41740 -6.64177 0.00000
				CHANNELS 3 Zrotation Yrotation Xrotation
				JOINT LeftFoot
				{
					OFFSET 2.71614 -7.46254 0.00000
					CHANNELS 3 Zrotation Yrotation Xrotation
					JOINT LeftToeBase
					{
						OFFSET 0.08005 -0.21993 1.82495
						CHANNELS 3 Zrotation Yrotation Xrotation
						End Site
						{
							OFFSET 0.00000 -0.00000 0.93441
						}
					}
				}
			}
		}
	}
	JOINT RHipJoint
	{
		OFFSET 0 0 0
		CHANNELS 3 Zrotation Yrotation Xrotation
		JOINT RightUpLeg
		{
			OFFSET -1.63725 -1.82942 0.76350
			CHANNELS 3 Zrotation Yrotation Xrotation
			JOINT RightLeg
			{
				OFFSET -2.40538 -6.60872 0.00000
				CHANNELS 3 Zrotation Yrotation Xrotation
				JOINT RightFoot
				{
					OFFSET -2.73312 -7.50919 0.00000
					CHANNELS 3 Zrotation Yrotation Xrotation
					JOINT RightToeBase
					{
						OFFSET -0.15567 -0.42769 1.93504
						CHANNELS 3 Zrotation Yrotation Xrotation
						End Site
						{
							OFFSET -0.00000 -0.00000 1.00100
						}
					}
				}
			}
		}
	}
	JOINT LowerBack
	{
		OFFSET 0 0 0
		CHANNELS 3 Zrotation Yrotation Xrotation
		JOINT Spine
		{
			OFFSET 0.00326 2.30118 -0.13017
			CHANNELS 3 Zrotation Yrotation Xrotation
			JOINT Spine1
			{
				OFFSET 0.02887 2.30677 0.00834
				CHANNELS 3 Zrotation Yrotation Xrotation
				JOINT Neck
				{
					OFFSET 0 0 0
					CHANNELS 3 Zrotation Yrotation Xrotation
					JOINT Neck1
					{
						OFFSET 0.12946 1.68326 0.00713
						CHANNELS 3 Zrotation Yrotation Xrotation
						JOINT Head
						{
							OFFSET -0.24364 1.67243 -0.16079
							CHANNELS 3 Zrotation Yrotation Xrotation
							End Site
							{
								OFFSET -0.09229 1.70819 -0.06383
							}
						}
					}
				}
				JOINT LeftShoulder
				{
					OFFSET 0 0 0
					CHANNELS 3 Zrotation Yrotation Xrotation
					JOINT LeftArm
					{
						OFFSET 3.28104 0.69567 -0.00556
						CHANNELS 3 Zrotation Yrotation Xrotation
						JOINT LeftForeArm
						{
							OFFSET 5.70706 -0.00000 -0.00000
							CHANNELS 3 Zrotation Yrotation Xrotation
							JOINT LeftHand
							{
								OFFSET 3.33243 -0.00000 0.00000
								CHANNELS 3 Zrotation Yrotation Xrotation
								JOINT LeftFingerBase
								{
									OFFSET 0 0 0
									CHANNELS 3 Zrotation Yrotation Xrotation
									JOINT LeftHandIndex1
									{
										OFFSET 0.79269 -0.00000 0.00000
										CHANNELS 3 Zrotation Yrotation Xrotation
										End Site
										{
											OFFSET 0.63909 -0.00000 0.00000
										}
									}
								}
								JOINT LThumb
								{
									OFFSET 0 0 0
									CHANNELS 3 Zrotation Yrotation Xrotation
									End Site
									{
										OFFSET 0.64884 -0.00000 0.64884
									}
								}
							}
						}
					}
				}
				JOINT RightShoulder
				{
					OFFSET 0 0 0
					CHANNELS 3 Zrotation Yrotation Xrotation
					JOINT RightArm
					{
						OFFSET -3.40955 0.64424 0.14010
						CHANNELS 3 Zrotation Yrotation Xrotation
						JOINT RightForeArm
						{
							OFFSET -5.88176 -0.00000 -0.00000
							CHANNELS 3 Zrotation Yrotation Xrotation
							JOINT RightHand
							{
								OFFSET -3.28156 -0.00000 0.00000
								CHANNELS 3 Zrotation Yrotation Xrotation
								JOINT RightFingerBase
								{
									OFFSET 0 0 0
									CHANNELS 3 Zrotation Yrotation Xrotation
									JOINT RightHandIndex1
									{
										OFFSET -0.86313 -0.00000 0.00000
										CHANNELS 3 Zrotation Yrotation Xrotation
										End Site
										{
											OFFSET -0.69587 -0.00000 0.00000
										}
									}
								}
								JOINT RThumb
								{
									OFFSET 0 0 0
									CHANNELS 3 Zrotation Yrotation Xrotation
									End Site
									{
										OFFSET -0.70650 -0.00000 0.70650
									}
								}
							}
						}
					}
				}
			}
		}
	}
}
MOTION
Frames: 9
Frame Time: 0.00623053
0.00 0.00 0.00 -12.8825 -30.8029 12.7989 0.0000 0.0000 0.0000 1.4294 -10.4637 -43.5415 11.9047 18.3501 65.6865 2.0334 -10.0741 -25.6143 1.7650 -8.3585 -23.8083 0.0000 0.0000 0.0000 6.4772 1.8232 -9.1477 -8.0746 -16.1738 52.8309 2.1158 24.8131 12.2141 -0.2087 -2.9411 8.1148 0.7087 -0.0750 12.9862 -0.6074 -0.0627 -6.1915 -1.0604 -0.1409 -14.2273 14.8853 2.3646 4.6472 -22.7048 -0.7706 -28.5516 -11.1212 0.2283 -9.5514 -0.0000 -0.0000 0.0000 53.8165 -7.4937 -61.4750 70.1057 -58.4504 -42.8607 -0.0000 0.0000 -51.3525 32.6953 11.7605 7.4535 -7.1250 0.0000 -0.0000 5.0739 43.8168 -0.1486 -0.0000 -0.0000 0.0000 -40.8651 21.2619 -54.7527 -27.6595 38.8008 -9.9096 0.0000 0.0000 11.7665 -39.7579 19.1011 -15.2289 7.1250 -0.0000 -0.0000 -7.2665 -5.8934 -6.5360
0.00 0.00 0.00 -18.5463 -35.3397 14.9374 0.0000 0.0000 0.0000 2.5292 -3.3678 -37.7082 10.1283 17.4813 59.9162 1.9080 -8.7033 -24.7738 1.3829 -7.4409 -21.0284 0.0000 0.0000 0.0000 -0.0199 -2.1386 -28.0830 -13.1735 -18.8439 69.6636 -0.2348 -1.3811 8.7718 -0.7941 -5.6881 15.8821 -0.4199 -0.8988 15.2855 -0.6228 -1.3919 -4.9785 -0.0794 -0.6457 -14.2210 14.1485 1.2187 3.1502 -22.4392 -2.2886 -25.3031 -10.4156 -0.5496 -8.4768 0.0000 0.0000 0.0000 51.2267 -8.9166 -57.8831 76.8806 -59.3395 -48.6635 -0.0000 0.0000 -58.1912 33.2033 16.0681 10.2674 -7.1250 0.0000 -0.0000 5.3876 48.8999 0.5196 0.0000 0.0000 0.0000 -34.4996 21.4422 -47.7077 -25.5774 36.7884 -8.6334 0.0000 0.0000 14.3951 -19.8674 18.9097 -6.6793 7.1250 -0.0000 -0.0000 5.4088 -10.0366 4.4036
0.00 0.00 0.00 -12.9923 -21.0931 11.3754 0.0000 0.0000 0.0000 8.1789 -10.7341 -43.5630 12.5658 18.6197 67.7714 1.7415 -18.8125 -25.3659 1.6815 -8.1685 -23.2270 0.0000 0.0000 0.0000 6.7009 -1.4620 -9.8847 -3.8254 -11.9244 35.4650 -0.6162 -3.1190 -16.2879 -3.1375 10.9144 -31.9918 0.9063 0.3980 13.7998 0.2965 0.7469 -5.2529 -0.3718 0.2841 -13.6161 11.2178 -0.1879 3.8617 -17.0282 -2.7432 -22.7612 -7.5615 -0.8401 -7.8663 0.0000 0.0000 0.0000 45.5107 -8.6920 -48.2119 66.0970 -57.7270 -39.4573 -0.0000 0.0000 -55.7146 25.8417 19.0533 8.9843 -7.1250 0.0000 -0.0000 -2.4225 50.9580 -0.3558 0.0000 0.0000 0.0000 -34.6887 25.8400 -41.3878 -42.7042 49.5929 -20.4752 0.0000 0.0000 7.5870 -37.8483 19.9046 -14.8178 7.1250 -0.0000 -0.0000 -5.9354 -5.4580 -5.3735
0.00 0.00 0.00 -22.1167 -40.2817 15.8012 0.0000 0.0000 0.0000 11.4682 1.4101 -31.6846 11.1015 17.9844 63.1108 3.0877 -10.3616 -31.7309 1.9461 -8.7528 -25.0251 0.0000 0.0000 0.0000 7.6720 -1.7079 -19.6117 -3.9958 -12.1548 36.2819 0.3930 11.7098 8.5226 -0.1946 2.8410 -7.8364 -3.5975 -2.9312 11.9928 -0.8537 -4.6340 -4.2078 2.0785 -1.9943 -11.1052 12.5206 -2.4628 -1.5890 -15.4215 -6.8489 -25.1438 -7.0267 -3.3906 -8.3354 0.0000 -0.0000 0.0000 53.0806 -18.5357 -60.1016 83.4124 -59.8354 -54.2982 -0.0000 0.0000 -36.7146 49.8310 9.9405 11.5576 -7.1250 0.0000 -0.0000 21.1126 44.0977 -0.4932 0.0000 -0.0000 0.0000 -35.7258 23.4966 -43.9070 -46.3282 51.4028 -23.2722 0.0000 0.0000 19.2577 -57.4046 20.2374 -28.4126 7.1250 -0.0000 -0.0000 -17.2310 3.0695 -18.9901
0.00 0.00 0.00 -49.1330 -63.5192 37.7524 0.0000 0.0000 0.0000 10.1030 18.3647 -14.5680 5.8875 14.3184 44.5284 2.3860 0.6436 -29.4858 0.3256 -3.6673 -10.1425 0.0000 0.0000 0.0000 -6.5096 -4.0351 -73.9299 -15.6611 -19.5425 77.2203 -0.4034 -15.0607 14.5731 -3.5856 -11.5875 34.2879 -6.2234 -5.9375 16.9590 0.6453 -9.1879 -2.6262 6.5365 -3.9015 -11.3005 14.5045 1.8635 -2.2178 -20.2531 -3.0923 -28.1346 -9.6451 -1.7887 -8.5657 0.0000 -0.0000 0.0000 43.2405 -24.1855 -54.0006 58.5410 -55.9085 -33.1300 -0.0000 0.0000 -63.6032 53.9459 18.8539 23.9366 -7.1250 0.0000 -0.0000 30.1893 57.4334 9.7880 0.0000 -0.0000 0.0000 -36.4419 17.7837 -43.1260 -46.7913 51.6165 -23.6347 0.0000 -0.0000 -0.9425 -23.2882 18.5313 -7.7896 7.1250 -0.0000 -0.0000 3.1529 -9.9551 2.5643
0.00 0.00 0.00 -61.9431 -63.8346 50.0941 0.0000 0.0000 0.0000 14.2890 19.4752 -17.8407 6.9404 15.2815 48.6487 2.3478 0.2715 -29.1247 0.1960 -2.8511 -7.8645 0.0000 0.0000 0.0000 -15.0967 -3.9120 -86.9716 -17.4290 -19.8408 82.4638 0.0312 -6.0754 3.3314 -0.5670 -4.8225 13.4029 -5.3954 -5.6588 20.1928 -0.9928 -8.9150 -0.4647 4.4957 -3.9168 -11.1344 13.8291 0.7224 -0.5070 -17.7441 -3.7642 -27.3576 -8.4465 -2.1121 -8.7708 0.0000 0.0000 0.0000 42.5924 -22.0417 -34.3499 79.8702 -59.6087 -51.2388 -0.0000 0.0000 -48.9328 4.8607 15.4204 1.2954 -7.1250 0.0000 -0.0000 -20.8640 44.3892 0.3295 0.0000 0.0000 0.0000 -33.0431 12.2312 -55.0414 -49.9961 52.9939 -26.1710 0.0000 -0.0000 -10.6690 -5.6055 17.7281 -1.7118 7.1250 -0.0000 -0.0000 14.6763 -12.5897 11.5176
0.00 0.00 0.00 -45.5369 -57.3993 42.0559 0.0000 0.0000 0.0000 14.5480 18.0665 -35.8646 8.5294 16.4951 54.4478 1.7108 -5.0962 -23.6177 0.8402 -5.8469 -16.3409 0.0000 0.0000 0.0000 -4.7713 -0.4815 -70.0099 -15.6388 -19.5377 77.1538 -0.7156 2.3501 16.9993 -0.9154 -6.0964 17.0643 -6.0894 -2.8252 19.4025 -3.3237 -5.7128 -2.2980 1.4437 -2.3507 -13.3080 11.5159 -1.0517 0.5555 -16.2441 -5.3931 -25.8272 -7.2570 -2.5633 -8.6986 -0.0000 0.0000 0.0000 43.1351 -16.0674 -41.0769 96.6602 -59.8317 -65.7647 -0.0000 0.0000 -55.8411 -7.2819 17.4949 -2.1999 -7.1250 0.0000 -0.0000 -32.1101 44.8219 0.1582 -0.0000 0.0000 0.0000 -38.7293 14.2983 -45.1857 -63.8300 57.2470 -37.5456 0.0000 -0.0000 -6.0559 -26.5121 20.3560 -9.8442 7.1250 -0.0000 -0.0000 1.2566 -7.4642 1.0830
0.00 0.00 0.00 -33.9046 -52.0993 34.8377 0.0000 0.0000 0.0000 15.1843 15.8759 -45.2078 9.6702 17.2202 58.3805 1.2139 -10.3686 -19.9199 0.6959 -5.3327 -14.8598 0.0000 0.0000 0.0000 3.3039 0.5090 -56.5297 -10.3778 -17.6169 60.7436 -0.9150 4.0176 19.9511 -0.4929 -4.5014 12.4918 -7.3239 -0.9610 19.6097 -4.1252 -3.7675 -3.1423 0.6593 -1.3583 -14.5428 8.8123 -2.6775 5.8495 -15.6993 -7.0835 -24.9476 -6.3383 -2.8231 -9.6176 -0.0000 -0.0000 0.0000 37.3353 -16.9233 -45.1831 92.6680 -59.9731 -62.3103 -0.0000 0.0000 -61.0015 25.5474 16.4145 7.6925 -7.1250 0.0000 -0.0000 -2.1749 48.0503 -0.1637 -0.0000 -0.0000 0.0000 -35.6078 18.1292 -32.6257 -78.8855 59.5280 -50.3899 0.0000 -0.0000 -3.5137 -32.8610 21.0832 -13.0816 7.1250 -0.0000 -0.0000 -2.6407 -5.3482 -2.3857
0.00 0.00 0.00 -25.2170 -47.5231 29.0377 0.0000 0.0000 0.0000 16.9889 15.0732 -53.2211 11.4768 18.1606 64.3204 1.2419 -12.0690 -20.4106 3.8089 -11.9017 -35.3851 0.0000 0.0000 0.0000 6.4882 1.6888 -46.5316 -8.1379 -16.2197 53.0577 -0.0300 5.8306 9.1225 -0.0435 1.3465 -3.7028 -6.2094 -1.0490 18.2228 -5.7055 -3.4712 -0.6053 -1.8135 -1.5213 -10.9738 12.6088 -1.5516 1.0302 -16.7009 -4.8516 -20.5961 -7.4324 -2.2311 -6.9993 0.0000 0.0000 0.0000 36.5892 -11.4541 -47.6372 91.8465 -59.9871 -61.5991 -0.0000 0.0000 -70.9592 45.1079 18.5656 17.7234 -7.1250 0.0000 -0.0000 18.4494 54.4664 4.4044 0.0000 0.0000 0.0000 -31.7014 20.5745 -26.5829 -94.8905 59.9094 -64.2340 0.0000 0.0000 5.2390 -15.6229 29.1051 -7.7458 7.1250 -0.0000 -0.0000 8.8076 -0.2597 8.8732
